<?xml version="1.0" encoding="UTF-8" standalone="no"?>
<svg
   version="1.0"
   width="1218.000000pt"
   height="1237.000000pt"
   viewBox="0 0 1218.000000 1237.000000"
   preserveAspectRatio="xMidYMid meet"
   id="svg8"
   sodipodi:docname="bow_3.svg"
   inkscape:version="1.1 (c68e22c387, 2021-05-23)"
   xmlns:inkscape="http://www.inkscape.org/namespaces/inkscape"
   xmlns:sodipodi="http://sodipodi.sourceforge.net/DTD/sodipodi-0.dtd"
   xmlns="http://www.w3.org/2000/svg"
   xmlns:svg="http://www.w3.org/2000/svg">
  <defs
     id="defs12" />
  <sodipodi:namedview
     id="namedview10"
     pagecolor="#ffffff"
     bordercolor="#666666"
     borderopacity="1.0"
     inkscape:pageshadow="2"
     inkscape:pageopacity="0.0"
     inkscape:pagecheckerboard="0"
     inkscape:document-units="pt"
     showgrid="false"
     inkscape:zoom="0.52930477"
     inkscape:cx="811.44177"
     inkscape:cy="824.66667"
     inkscape:window-width="2560"
     inkscape:window-height="1377"
     inkscape:window-x="1272"
     inkscape:window-y="-8"
     inkscape:window-maximized="1"
     inkscape:current-layer="svg8" />
  <metadata
     id="metadata2">
Created by potrace 1.16, written by Peter Selinger 2001-2019
</metadata>
  <g
     transform="translate(0.000000,1237.000000) scale(0.100000,-0.100000)"
     fill="#000000"
     stroke="none"
     id="g6">
    <path
       d="M3906 12254 c-64 -20 -116 -56 -146 -100 -23 -35 -28 -72 -18 -161 1 -10 -771 -1222 -1716 -2693 l-1717 -2675 -115 -5 c-87 -4 -117 -9 -124 -20 -5 -8 -10 -68 -10 -132 0 -112 1 -118 24 -135 l24 -18 -25 -42 -25 -43 21 -33 c20 -33 20 -33 1 -50 -18 -15 -20 -30 -20 -136 0 -85 4 -122 13 -129 7 -6 60 -13 117 -14 l103 -3 1739 -2710 c1226 -1911 1738 -2716 1734 -2730 -2 -11 -12 -40 -21 -64 -68 -185 207 -331 422 -224 76 37 108 85 127 185 30 155 93 273 211 393 91 92 213 177 337 234 47 22 175 67 284 101 1351 419 2436 1121 3133 2029 437 569 706 1260 738 1901 l6 125 44 50 c81 94 87 120 91 438 l3 277 270 0 269 0 0 -250 c0 -236 1 -251 20 -270 20 -20 20 -20 112 14 324 118 2234 819 2267 832 44 17 61 48 39 70 -7 7 -550 210 -1206 450 -1162 426 -1192 437 -1212 419 -19 -17 -20 -31 -20 -267 l0 -248 -270 0 -270 0 0 89 c0 157 -27 243 -99 316 l-39 40 -5 230 c-11 462 -103 844 -312 1294 -279 603 -769 1183 -1408 1664 -592 447 -1330 813 -2151 1067 -109 34 -237 79 -284 101 -124 57 -246 142 -337 234 -118 120 -181 238 -211 393 -19 101 -51 148 -128 185 -72 36 -185 45 -260 21z m224 -97 c53 -26 73 -61 90 -157 34 -189 176 -392 371 -530 104 -73 264 -151 399 -195 635 -204 891 -305 1305 -515 429 -217 780 -443 1112 -715 952 -780 1476 -1734 1510 -2747 l6 -187 -34 9 c-43 13 -723 13 -767 1 l-32 -10 0 62 c0 142 -42 417 -96 630 -321 1272 -1389 2395 -2959 3112 -401 183 -612 323 -843 557 -125 127 -223 264 -302 422 -88 174 -90 210 -16 256 72 44 174 47 256 7z m-328 -280 l15 -32 -1672 -2605 c-920 -1433 -1681 -2614 -1693 -2625 -26 -26 -202 -302 -202 -318 0 -6 -7 -21 -15 -31 -8 -11 -15 -30 -15 -42 0 -14 -8 -24 -23 -28 -36 -9 -43 -7 -54 17 -9 20 -6 30 23 68 55 73 145 210 176 269 36 68 3431 5360 3439 5360 3 0 12 -15 21 -33z m82 -151 c86 -147 271 -352 441 -489 185 -149 368 -258 632 -378 1083 -490 1917 -1155 2450 -1954 341 -511 541 -1059 592 -1625 17 -177 15 -217 -9 -232 -35 -22 -89 -110 -105 -173 -8 -33 -15 -102 -15 -157 l0 -98 -1779 0 -1779 0 -175 354 c-111 224 -182 358 -195 365 -15 8 -434 11 -1456 11 -1418 0 -1436 0 -1456 -20 -15 -15 -18 -25 -11 -43 5 -13 82 -168 170 -345 l161 -322 -406 0 -406 0 14 23 c1491 2325 3294 5127 3299 5127 4 0 19 -20 33 -44z m176 -4786 l160 -320 -1388 0 -1387 0 -158 315 c-86 173 -157 317 -157 320 0 3 623 5 1385 5 l1385 0 160 -320z m4858 76 c102 -57 132 -120 132 -281 l0 -115 -545 0 -545 0 0 114 c0 63 5 127 11 143 17 47 60 102 97 125 76 47 87 48 452 45 l345 -2 53 -29z m1958 -375 c599 -220 1082 -402 1074 -405 -138 -52 -2174 -796 -2176 -796 -2 0 -4 360 -4 800 0 440 4 800 8 800 5 0 499 -180 1098 -399z m-1196 -401 l0 -290 -4765 0 -4766 0 3 71 3 71 150 55 c82 30 156 59 163 65 7 6 12 23 10 37 -3 22 -12 29 -61 46 -39 13 -56 24 -52 33 3 7 32 56 66 108 l61 94 4594 0 4594 0 0 -290z m-7555 -2967 c924 -1429 1690 -2615 1704 -2636 l24 -38 -22 -46 c-12 -25 -26 -42 -30 -37 -12 13 -3431 5344 -3431 5349 0 3 17 5 39 5 l38 0 1678 -2597z m-775 2592 c0 -3 -72 -150 -161 -327 -88 -177 -165 -332 -170 -345 -7 -18 -4 -28 11 -43 20 -20 38 -20 1458 -20 1220 0 1441 2 1458 14 10 8 98 173 194 368 l175 353 1778 3 1777 2 0 -249 c0 -321 8 -363 92 -464 l40 -48 -7 -67 c-37 -369 -164 -801 -337 -1147 -494 -985 -1426 -1807 -2701 -2384 -264 -120 -447 -229 -633 -378 -126 -102 -290 -273 -370 -386 -45 -63 -65 -83 -72 -74 -17 21 -3344 5171 -3349 5185 -4 9 81 12 406 12 226 0 411 -2 411 -5z m2870 0 c0 -3 -72 -149 -160 -325 l-160 -320 -1385 0 c-762 0 -1385 2 -1385 5 0 3 72 149 160 325 l160 320 1385 0 c762 0 1385 -2 1385 -5z m4830 -268 l0 -273 -26 -52 c-28 -57 -69 -96 -129 -123 -36 -17 -73 -19 -390 -19 -317 0 -354 2 -390 19 -60 27 -101 66 -129 123 l-26 52 0 273 0 273 545 0 545 0 0 -273z m-872 -549 c89 -14 678 -6 716 10 l28 12 -7 -92 c-3 -51 -15 -155 -25 -230 -198 -1438 -1429 -2732 -3270 -3438 -159 -61 -289 -106 -630 -215 -135 -44 -295 -122 -399 -195 -195 -138 -337 -341 -371 -530 -6 -36 -19 -81 -28 -100 -62 -129 -372 -101 -372 33 0 52 126 294 214 411 170 227 411 432 691 589 55 31 195 99 310 152 1455 664 2484 1681 2881 2847 75 219 137 493 160 706 6 53 9 62 23 57 9 -4 44 -11 79 -17z"
       id="path4" />
  </g>
  <path
     style="fill:#ffffff;stroke:#d4aa00;stroke-width:1.88927"
     d="m 21.726613,846.78697 v -9.05266 l 19.81521,-7.25821 c 10.898366,-3.99201 20.770455,-8.40921 21.937977,-9.81598 3.203002,-3.85938 0.626407,-8.12572 -6.775119,-11.21828 -3.651454,-1.52567 -6.639007,-3.13853 -6.639007,-3.58412 0,-0.4456 3.49565,-6.38539 7.768109,-13.19954 l 7.76811,-12.38938 H 677.51458 1289.4273 v 37.78542 37.78541 H 655.57694 21.726613 Z"
     id="path88"
     transform="scale(0.75)" />
  <path
     style="fill:#ffffff;stroke:#d4aa00;stroke-width:1.88927"
     d="m 188.26674,755.23597 c -3.11345,-5.45527 -12.47225,-24.15905 -20.79732,-41.56396 l -15.1365,-31.64528 h 183.62773 183.62773 l 19.81787,40.12166 c 10.89984,22.06691 20.10127,40.77069 20.44763,41.56395 0.34638,0.79326 -81.84536,1.4423 -182.64829,1.4423 H 193.92756 Z"
     id="path127"
     transform="scale(0.75)" />
  <path
     style="fill:#ffffff;stroke:#d4aa00;stroke-width:1.88927"
     d="m 1304.5414,817.10958 c 0,-99.47307 0.1818,-105.18864 3.3063,-103.98271 1.8184,0.70183 39.0134,14.2894 82.6555,30.19459 126.3579,46.05057 199.2911,73.64473 197.8341,74.85029 -0.7424,0.61434 -63.8375,23.91076 -140.2113,51.76981 -76.3738,27.85906 -139.9241,51.05197 -141.223,51.53982 -1.8716,0.70296 -2.3616,-20.95122 -2.3616,-104.3718 z"
     id="path166"
     transform="scale(0.75)" />
  <path
     style="fill:#ffffff;stroke:#d4aa00;stroke-width:1.88927"
     d="m 173.32652,909.68385 21.22934,-42.50859 180.44486,0.0289 c 99.24468,0.0159 181.51172,0.70626 182.81564,1.53412 1.74895,1.11041 -2.93339,12.2521 -17.85229,42.47966 l -20.22305,40.97447 H 335.9191 152.09717 Z"
     id="path205"
     transform="scale(0.75)" />
  <path
     style="fill:#ffffff;stroke:#d4aa00;stroke-width:1.88927"
     d="m 519.59257,1620.0334 c -10.6966,-5.7792 -10.98873,-10.105 -1.95542,-28.9543 25.43425,-53.0724 71.35682,-95.1695 138.88442,-127.315 73.04444,-34.7716 106.22797,-53.1589 153.03093,-84.7956 142.75018,-96.4926 236.1769,-225.5452 262.4591,-362.5409 2.0931,-10.9105 4.4996,-24.51324 5.3478,-30.22829 1.334,-8.98878 2.0434,-10.27972 5.2567,-9.56649 2.043,0.45348 26.4567,0.73799 54.2526,0.63225 l 50.5379,-0.19224 v 8.47045 c 0,25.25742 -12.7414,84.44602 -25.6183,119.00622 -42.9943,115.3924 -137.3566,220.2474 -270.05252,300.0812 -27.59947,16.6047 -88.06288,46.7357 -120.91333,60.2554 -14.54738,5.987 -48.97934,18.5384 -76.51546,27.892 -53.95634,18.3281 -72.91586,27.1642 -91.92194,42.8407 -20.9673,17.294 -33.80152,37.4042 -40.52605,63.501 -4.64236,18.0162 -9.34335,22.4344 -24.78403,23.2931 -8.34665,0.4642 -13.52318,-0.2403 -17.4824,-2.3795 z"
     id="path244"
     transform="scale(0.75)" />
  <path
     style="fill:#ffffff;stroke:#d4aa00;stroke-width:1.88927"
     d="m 1077.3285,958.74057 c -13.0941,-8.89762 -14.6137,-14.67875 -14.6137,-55.5939 v -35.97141 h 71.7923 71.7923 v 35.04533 c 0,37.2129 -0.8048,41.30565 -10.1397,51.56831 -8.5149,9.36118 -10.9604,9.73916 -63.0095,9.73916 h -48.7763 z"
     id="path283"
     transform="scale(0.75)" />
  <path
     style="fill:#ffffff;stroke:#d4aa00;stroke-width:1.88927"
     d="m 1062.7148,749.94665 c 0,-16.9726 2.2803,-23.16966 11.3264,-30.7815 9.1467,-7.69644 16.9461,-8.77759 63.4022,-8.78883 l 43.5557,-0.0105 8.7674,5.56011 c 11.425,7.24553 14.5978,13.8558 15.9677,33.26724 l 1.1264,15.9615 h -72.0729 -72.0729 z"
     id="path322"
     transform="scale(0.75)" />
  <path
     style="fill:#ffffff;stroke:#d4aa00;stroke-width:1.88927"
     d="M 1078.2596,675.41428 C 1063.19,519.05701 965.16174,373.56453 801.99542,265.38595 757.6125,235.96026 731.27661,221.44851 660.30011,187.3082 614.64274,165.3466 590.01455,148.7079 562.62792,121.32127 543.58164,102.27499 530.40622,84.07229 519.25682,61.401298 509.14021,40.830337 509.02204,35.112708 518.60481,29.852286 c 5.06304,-2.779334 9.39092,-3.470842 18.47016,-2.951162 15.44179,0.883863 20.14457,5.307405 24.78403,23.312421 4.62672,17.955508 9.42429,28.008452 20.10416,42.126696 20.95171,27.697099 45.14757,41.626389 110.45456,63.587449 59.89003,20.13948 95.18021,34.48729 139.80603,56.84046 82.98495,41.56734 140.27916,81.38159 198.14335,137.69157 100.4845,97.78555 152.0337,204.65861 157.6607,326.86592 l 0.958,20.80406 -54.2706,-0.0221 -54.2705,-0.0221 -2.1851,-22.67125 z"
     id="path604"
     transform="scale(0.75)" />
</svg>
