<?xml version="1.0" encoding="UTF-8" standalone="no"?>
<svg
   width="512px"
   height="512px"
   viewBox="0 0 512 512"
   version="1.1"
   id="svg4"
   sodipodi:docname="d12-svgrepo-com.svg"
   inkscape:version="1.1 (c68e22c387, 2021-05-23)"
   xmlns:inkscape="http://www.inkscape.org/namespaces/inkscape"
   xmlns:sodipodi="http://sodipodi.sourceforge.net/DTD/sodipodi-0.dtd"
   xmlns="http://www.w3.org/2000/svg"
   xmlns:svg="http://www.w3.org/2000/svg">
  <defs
     id="defs8" />
  <sodipodi:namedview
     id="namedview6"
     pagecolor="#ffffff"
     bordercolor="#666666"
     borderopacity="1.0"
     inkscape:pageshadow="2"
     inkscape:pageopacity="0.0"
     inkscape:pagecheckerboard="0"
     showgrid="false"
     inkscape:zoom="1.7050781"
     inkscape:cx="256"
     inkscape:cy="256"
     inkscape:window-width="2560"
     inkscape:window-height="1377"
     inkscape:window-x="1272"
     inkscape:window-y="-8"
     inkscape:window-maximized="1"
     inkscape:current-layer="svg4" />
  <path
     fill="#000"
     d="M450.169 181.354L379.685 84.29 265.629 47.325v92.652l96.384 70.031zm-91.46-28.416a19.735 19.735 0 0 1-3.004 6.606 16.563 16.563 0 0 1-11.924 6.857q-7.548.918-15.729-5.056-8.18-5.974-9.599-13.439a16.563 16.563 0 0 1 2.922-13.414 19.747 19.747 0 0 1 5.378-4.866q3.422-2.206 9.026-1.574a18.757 18.757 0 0 1-1.717-10.421 21.082 21.082 0 0 1 4.03-9.802 19.246 19.246 0 0 1 13.666-7.99q8.633-1.108 17.779 5.57 9.146 6.677 10.326 14.952a20.033 20.033 0 0 1-3.827 15.204 20.772 20.772 0 0 1-8.145 6.797 16.312 16.312 0 0 1-10.17 1.192q2.038 5.461.989 9.384zm-10.731-8.287a8.252 8.252 0 0 1-1.717 6.189 8.907 8.907 0 0 1-15.669-3.685 8.562 8.562 0 0 1 1.908-6.367 8.347 8.347 0 0 1 5.33-3.578 8.252 8.252 0 0 1 6.451 1.825 8.347 8.347 0 0 1 3.757 5.628zm9.54-11.77a10.732 10.732 0 0 1-11.472-8.346q-.548-3.709 2.504-7.894a10.851 10.851 0 0 1 6.654-4.77 10.732 10.732 0 0 1 11.543 8.43 10.851 10.851 0 0 1-2.469 7.775q-2.945 4.198-6.653 4.806zm-110.968 7.096V47.325L132.494 84.29 62.01 181.354l88.156 28.618zm-112.66-21.798l37.895-26.52a31.73 31.73 0 0 1 5.056 12.664q1.55 7.155-2.79 19.413a98.304 98.304 0 0 0-4.341 14.524 13.904 13.904 0 0 0 2.158 10.314 10.732 10.732 0 0 0 6.034 4.472 8.347 8.347 0 0 0 7.154-1.574q4.961-3.47 4.162-8.43a22.418 22.418 0 0 0-3.577-7.644l10.577-7.393q4.674 7.25 5.425 13.2 1.443 11.328-9.682 19.079-8.789 6.153-17.386 4.913-8.597-1.24-14.214-9.242a21.237 21.237 0 0 1-3.97-13.486 44.513 44.513 0 0 1 3.112-12.568l2.194-6.141q2.063-5.76 2.659-8.12a15.025 15.025 0 0 0 .43-4.77l-24.16 16.908zm64.7 215.412h114.998l35.51-109.37-93.009-67.598-93.009 67.599zm89.266-95.072a8.347 8.347 0 0 0-6.797-2.838q-6.058 0-8.24 4.52a22.382 22.382 0 0 0-1.49 8.346h-12.855q.322-8.62 3.124-13.927 5.319-10.112 18.889-10.112 10.731 0 17.063 5.962 6.332 5.962 6.237 15.633a21.25 21.25 0 0 1-4.484 13.32 44.585 44.585 0 0 1-9.659 8.62l-5.318 3.769q-4.996 3.577-6.832 5.127a15 15 0 0 0-3.1 3.685h29.488v11.685h-46.207a31.73 31.73 0 0 1 3.125-13.271q2.838-6.75 13.414-14.31a98.602 98.602 0 0 0 11.925-9.408 13.916 13.916 0 0 0 4.15-9.682 10.732 10.732 0 0 0-2.433-7.13zm-79.607-1.812a58.536 58.536 0 0 0 8.776-.835 12.377 12.377 0 0 0 6.511-3.577 11.686 11.686 0 0 0 2.6-4.842 11.125 11.125 0 0 0 .512-2.707h11.09v67.54h-13.606v-46.553H208.25v-9.038zM196.468 352.67l-54.434 75.04 114.055 36.965 114.056-36.965-54.434-75.04H196.468zm77.27 83.792q-5.64 7.226-17.517 7.214-12.76 0-18.817-10.672-4.71-8.347-4.71-21.464a97.78 97.78 0 0 1 .656-12.58 38.444 38.444 0 0 1 4.52-14.309 23.121 23.121 0 0 1 7.571-7.87 20.414 20.414 0 0 1 11.197-2.981q9.408 0 15 4.77a18.328 18.328 0 0 1 6.285 12.83h-13.165a6.773 6.773 0 0 0-1.252-3.577 7.286 7.286 0 0 0-6.475-3.172q-6.474 0-9.217 7.262a45.062 45.062 0 0 0-2.051 11.829 14.905 14.905 0 0 1 5.724-4.281 20.975 20.975 0 0 1 22.19 4.77 21.833 21.833 0 0 1 5.748 15.609 26.34 26.34 0 0 1-5.64 16.61zm-10.732-24.612q2.885 3.148 2.885 9.063a13.868 13.868 0 0 1-2.54 8.645 8.275 8.275 0 0 1-6.963 3.327 9.36 9.36 0 0 1-7.453-3.446 13.248 13.248 0 0 1-2.862-8.884q0-6.75 3.911-9.778a9.456 9.456 0 0 1 5.962-2.05 9.241 9.241 0 0 1 7.131 3.111zm119.147-112.195l27.879 8.347-4.77 16.157zm-14.31-71.546l-36.81 113.28 54.483 74.993L456 319.366V199.503zm66.073 86.952l-13.927-4.162-7.656 25.614-11.113-3.315-32.196-35.523 4.27-14.309 40.434 12.08 2.183-7.322 9.956 2.97-2.182 7.32 13.928 4.162zm-289.76-86.952L56 199.491v119.934l70.484 97.016 54.482-74.992zM72.54 286.24l44.43-14-4.77-15.143 8.621-2.719a58.536 58.536 0 0 0 3.435 8.12 12.377 12.377 0 0 0 5.33 5.14 11.686 11.686 0 0 0 5.401 1.026 11.137 11.137 0 0 0 2.731-.322l3.327 10.576-64.391 20.272zm18.47 58.596l-4.09-12.974 44.43-13.999-4.77-15.144 8.622-2.718a58.68 58.68 0 0 0 3.434 8.12 12.365 12.365 0 0 0 5.33 5.14 11.65 11.65 0 0 0 5.402 1.025 11.102 11.102 0 0 0 2.73-.322l3.328 10.577z"
     id="path2" />
  <path
     style="fill:#000000;fill-opacity:1;stroke:#d4aa00;stroke-width:0.586483"
     d="m 74.884841,292.54531 c -1.013843,-3.2861 -1.782841,-6.02919 -1.708884,-6.09575 0.07396,-0.0666 9.879165,-3.18586 21.789351,-6.93177 11.910182,-3.74592 21.788922,-6.94479 21.952742,-7.10862 0.16382,-0.16382 -0.67366,-3.44226 -1.86107,-7.28542 -1.18741,-3.84316 -2.15893,-7.2311 -2.15893,-7.52875 0,-0.52967 7.51689,-2.83119 7.83914,-2.40018 0.0899,0.12028 0.61148,1.42894 1.159,2.90813 2.6873,7.26007 6.64044,10.63192 12.56521,10.71756 l 3.1032,0.0449 1.4403,4.68996 c 0.79217,2.57948 1.24632,4.87097 1.00922,5.0922 -0.44936,0.41931 -61.911171,19.87252 -62.786591,19.87252 -0.274635,0 -1.328845,-2.68864 -2.342688,-5.97474 z"
     id="path2580" />
  <path
     style="fill:#000000;fill-opacity:1;stroke:#d4aa00;stroke-width:0.586483"
     d="m 174.32134,164.72019 c -1.53815,-0.22589 -3.93451,-0.96154 -5.32523,-1.63478 -3.46311,-1.67645 -8.322,-6.70917 -10.23363,-10.59973 -1.43355,-2.91757 -1.57938,-3.81382 -1.52685,-9.38373 0.0568,-6.02333 0.14343,-6.40138 3.95876,-17.27737 3.88684,-11.07984 4.78387,-15.44362 3.03681,-14.77321 -0.47513,0.18232 -5.6875,3.71805 -11.58304,7.85716 -5.89555,4.13912 -11.00764,7.70299 -11.3602,7.91972 -0.80748,0.49637 -7.01883,-8.28028 -6.31667,-8.92547 1.41066,-1.29621 36.12621,-25.238404 36.59501,-25.238404 0.85457,0 3.43016,5.501839 4.46569,9.539354 1.50925,5.88456 0.85619,11.41257 -2.61446,22.13075 -4.93593,15.2433 -5.22919,18.94951 -1.91314,24.17837 3.31705,5.23046 9.54653,6.53991 14.04022,2.95131 4.44095,-3.54649 5.08175,-7.28706 2.22331,-12.97809 l -1.50277,-2.99194 1.87774,-1.3719 c 1.03275,-0.75455 3.24583,-2.32877 4.91795,-3.49828 l 3.04022,-2.12637 1.45694,2.48608 c 5.69597,9.71944 5.01058,18.63104 -1.96978,25.61139 -5.9229,5.92291 -14.34699,9.14139 -21.26688,8.12514 z"
     id="path2619" />
  <path
     style="fill:#000000;fill-opacity:1;stroke:#d4aa00;stroke-width:0.586483"
     d="m 90.926168,343.53265 c -3.218902,-10.03373 -3.472627,-11.08108 -2.787079,-11.50477 0.396997,-0.24536 10.286873,-3.43994 21.977501,-7.09907 11.69063,-3.65913 21.33917,-6.71689 21.4412,-6.79503 0.10203,-0.0781 -0.88188,-3.51729 -2.18645,-7.64257 -1.30458,-4.12529 -2.31177,-7.55406 -2.2382,-7.6195 0.0736,-0.0654 1.89175,-0.64278 4.04042,-1.28297 l 3.90666,-1.16397 1.25358,3.43805 c 2.57623,7.06555 6.6168,10.49228 12.3718,10.49228 h 3.27603 l 1.49452,4.98443 1.49451,4.98443 -9.16001,2.89627 c -32.80357,10.37203 -54.079488,17.04552 -54.343219,17.04552 -0.168342,0 -0.411911,-0.3299 -0.541263,-0.7331 z"
     id="path2658" />
  <path
     style="fill:#000000;fill-opacity:1;stroke:#d4aa00;stroke-width:0.586483"
     d="m 250.56592,442.78043 c -8.51923,-2.15026 -14.473,-9.71046 -16.64074,-21.13072 -1.1979,-6.31084 -0.80484,-22.42806 0.67861,-27.82611 1.64058,-5.96984 4.09614,-10.40359 7.594,-13.71172 4.92316,-4.65612 7.54568,-5.6433 14.97518,-5.63706 5.39326,0.005 6.56201,0.19399 9.41049,1.52551 1.78883,0.83618 4.21949,2.36943 5.40146,3.40722 2.22761,1.95586 4.75742,6.55946 5.4243,9.8708 l 0.38386,1.90607 h -6.49791 c -5.95032,0 -6.49792,-0.0922 -6.49792,-1.09387 0,-0.60163 -0.57215,-1.82124 -1.27144,-2.71025 -3.94167,-5.01102 -11.95017,-3.64122 -15.12783,2.58751 -1.13466,2.22413 -2.95468,10.0005 -2.95468,12.62444 v 1.48706 l 2.61334,-1.99481 c 3.47082,-2.64933 6.22156,-3.50726 11.17543,-3.48548 8.06156,0.0354 15.60517,5.32867 18.48074,12.96766 1.06762,2.83616 1.23505,4.30829 1.05638,9.28856 -0.19516,5.4401 -0.38983,6.27744 -2.40957,10.36411 -2.57633,5.21285 -6.61778,9.20178 -10.83267,10.69189 -3.29031,1.16324 -11.8303,1.65939 -14.96103,0.86919 z m 10.82044,-10.99251 c 5.71814,-3.37778 6.21414,-16.86375 0.77753,-21.1402 -5.06254,-3.98219 -12.81252,-2.04524 -15.32661,3.83058 -1.26575,2.95824 -1.04273,9.8659 0.41581,12.87883 2.62152,5.41536 9.05317,7.43168 14.13327,4.43079 z"
     id="path2697" />
  <path
     style="fill:#000000;fill-opacity:1;stroke:#d4aa00;stroke-width:0.586483"
     d="m 406.3152,334.43098 -4.80966,-1.48778 -15.86388,-17.47984 c -8.72514,-9.61392 -15.86388,-17.85264 -15.86388,-18.30828 0,-0.82153 3.45795,-12.8448 3.78972,-13.17682 0.0951,-0.0951 8.99994,2.47807 19.78864,5.71821 10.7887,3.24014 19.8761,5.89116 20.19422,5.89116 0.31813,0 0.90063,-1.25361 1.29446,-2.7858 1.13014,-4.39677 1.07669,-4.36855 5.68618,-3.00254 2.24564,0.66548 4.25703,1.38237 4.46976,1.59308 0.21272,0.21072 -0.0939,1.91784 -0.68147,3.79362 -0.76891,2.45485 -0.87729,3.47275 -0.38678,3.63266 0.37481,0.12218 3.4526,1.05695 6.83954,2.07727 3.38694,1.02031 6.21331,1.90408 6.28083,1.96394 0.21544,0.19099 -3.07035,10.82618 -3.46749,11.22333 -0.20978,0.20978 -3.30501,-0.47782 -6.87828,-1.52799 -3.57327,-1.05017 -6.64742,-1.75884 -6.83145,-1.57481 -0.18403,0.18403 -1.97722,5.81742 -3.98487,12.51865 -2.00765,6.70123 -3.9013,12.23708 -4.20811,12.30189 -0.3068,0.0648 -2.72217,-0.55167 -5.36748,-1.36995 z m 0.72662,-15.23739 c 0.83944,-2.82246 1.93268,-6.40904 2.42941,-7.9702 0.50021,-1.57207 0.67808,-3.05152 0.39867,-3.31601 -0.71802,-0.67966 -26.54517,-8.33139 -27.28682,-8.08418 -0.58862,0.19621 21.64304,24.34223 22.51147,24.44991 0.23156,0.0287 1.10783,-2.25707 1.94727,-5.07952 z"
     id="path2736" />
  <path
     style="fill:#000000;fill-opacity:1;stroke:#d4aa00;stroke-width:0.586483"
     d="m 335.04421,164.87204 c -3.73937,-1.50911 -9.89506,-5.97605 -12.1381,-8.8081 -4.47265,-5.64719 -5.61644,-12.32963 -3.07187,-17.9471 2.62757,-5.80073 7.78887,-9.67698 12.88507,-9.67698 3.01782,0 3.16007,-0.067 2.80185,-1.31959 -2.45936,-8.59948 -1.0802,-14.79159 4.66175,-20.9302 6.13881,-6.562884 15.3102,-7.893551 24.09294,-3.49562 7.20099,3.60587 12.94753,9.73692 14.66561,15.6469 3.39648,11.68351 -6.09909,25.01585 -17.83737,25.04473 -3.43358,0.008 -3.67383,0.0939 -3.3248,1.18208 0.20692,0.64513 0.51404,2.66715 0.6825,4.49338 0.52381,5.67861 -2.90017,11.68041 -8.57043,15.02289 -3.5114,2.06988 -10.72208,2.4524 -14.84715,0.78761 z m 8.6838,-11.56907 c 2.78543,-1.32178 4.34988,-4.10286 4.34988,-7.7327 0,-3.61895 -1.85789,-6.16435 -5.75888,-7.88994 -3.13454,-1.38656 -5.76564,-1.0336 -8.32052,1.11619 -5.41334,4.55502 -4.52399,12.18974 1.74352,14.96753 1.665,0.73793 5.98486,0.48852 7.986,-0.46108 z m 17.31241,-21.50644 c 1.09604,-0.73436 2.85053,-2.61161 3.89887,-4.17166 4.11498,-6.1236 1.42378,-13.53604 -5.68807,-15.6668 -3.19761,-0.95803 -6.16265,-0.22471 -8.82812,2.18337 -4.13976,3.74003 -5.63053,8.61254 -3.887,12.70443 2.31882,5.44203 9.90587,8.03167 14.50432,4.95066 z"
     id="path3009" />
</svg>
